<svg width="183" height="53" viewBox="0 0 183 53" fill="none" xmlns="http://www.w3.org/2000/svg">
<path d="M64.0587 36.6117C63.4591 36.6117 62.7568 36.646 61.9517 36.7145C61.1467 36.783 60.6156 36.8344 60.3587 36.8686L60.5386 35.1728C61.2751 35.0358 61.7719 34.8302 62.0288 34.5562C62.2858 34.265 62.4142 33.7853 62.4142 33.1173L62.4399 23.0452C62.4399 22.5656 62.38 22.2316 62.2601 22.0431C62.1402 21.8547 61.926 21.7605 61.6177 21.7605C61.4464 21.7605 61.2751 21.7691 61.1038 21.7862C60.9325 21.8033 60.8126 21.8119 60.7441 21.8119L60.5643 21.6063L60.7955 20.0647C61.0696 20.0647 61.5663 20.0733 62.2858 20.0904C63.0223 20.1075 63.7075 20.1161 64.3413 20.1161C64.9922 20.1161 65.7202 20.0989 66.5253 20.0647C67.3304 20.0304 67.8956 20.0047 68.2211 19.9876C69.9854 19.9876 71.3301 20.3302 72.2551 21.0154C73.1801 21.7005 73.6426 22.6855 73.6426 23.9702C73.6426 24.8267 73.3942 25.5889 72.8974 26.257C72.4178 26.9079 71.7412 27.456 70.8676 27.9014C71.981 28.1926 72.8632 28.6551 73.5141 29.2889C74.1821 29.9227 74.5162 30.7363 74.5162 31.7298C74.5162 32.7405 74.2335 33.6397 73.6683 34.4277C73.1201 35.1985 72.3407 35.7981 71.3301 36.2263C70.3366 36.6545 69.1803 36.8686 67.8614 36.8686C67.6558 36.8686 67.3732 36.8515 67.0135 36.8173C66.6538 36.783 66.3797 36.7573 66.1913 36.7402C65.9686 36.723 65.626 36.6973 65.1635 36.6631C64.701 36.6288 64.3327 36.6117 64.0587 36.6117ZM65.8315 27.1563C66.0371 27.1734 66.4482 27.2162 67.0649 27.2847C67.6815 27.3533 68.0926 27.3875 68.2982 27.3875C68.2982 27.4218 68.4609 27.3361 68.7864 27.1306C69.129 26.9079 69.4287 26.591 69.6857 26.1799C69.9597 25.7688 70.0968 25.2463 70.0968 24.6125C70.0968 23.7389 69.8056 23.0966 69.2232 22.6855C68.6408 22.2744 67.7329 22.0688 66.4996 22.0688C66.3283 22.0688 66.2084 22.1031 66.1399 22.1716C66.0885 22.2401 66.0542 22.3686 66.0371 22.557C65.9343 23.9445 65.8658 25.4776 65.8315 27.1563ZM65.6774 33.1944C65.6774 33.7425 65.8658 34.1365 66.2427 34.3763C66.6195 34.599 67.2447 34.7103 68.1183 34.7103C68.9577 34.7103 69.6171 34.4791 70.0968 34.0166C70.5764 33.5541 70.8162 32.9203 70.8162 32.1152C70.8162 31.4129 70.585 30.8305 70.1225 30.368C69.6771 29.8884 69.0262 29.5544 68.1697 29.366L65.7802 29.3917L65.6774 33.1944ZM81.8408 36.92C80.0422 36.92 78.6205 36.3976 77.5756 35.3527C76.5478 34.2907 76.0339 32.8432 76.0339 31.0104C76.0339 29.7771 76.2994 28.6637 76.8304 27.6701C77.3614 26.6766 78.0894 25.8973 79.0144 25.332C79.9394 24.7496 80.9672 24.4584 82.0977 24.4584C84.9755 24.4584 86.4143 25.9144 86.4143 28.8264C86.4143 29.3403 86.3544 29.8199 86.2345 30.2653L85.9262 30.5736H79.2714C79.2885 31.824 79.5797 32.7833 80.145 33.4513C80.7274 34.1022 81.5325 34.4277 82.5602 34.4277C83.451 34.4277 84.4702 34.1708 85.6178 33.6569L85.7977 33.7597L86.2088 35.0187C85.575 35.4983 84.8384 35.9351 83.9991 36.3291C83.1769 36.723 82.4574 36.92 81.8408 36.92ZM82.7915 28.9549C82.997 28.9377 83.1255 28.8949 83.1769 28.8264C83.2454 28.7579 83.2797 28.6037 83.2797 28.3639C83.2797 27.0963 82.7401 26.4625 81.6609 26.4625C80.9929 26.4625 80.4447 26.6938 80.0165 27.1563C79.6054 27.6188 79.357 28.2868 79.2714 29.1604L82.7915 28.9549ZM91.6023 36.92C90.9857 36.92 90.4204 36.8686 89.9065 36.7659C89.4098 36.6631 89.0158 36.5603 88.7246 36.4575C88.4334 36.3376 88.2535 36.2605 88.185 36.2263L88.0309 35.9693C88.0994 35.5069 88.1593 34.9673 88.2107 34.3506C88.2792 33.734 88.3306 33.143 88.3649 32.5777L89.7781 32.4493C89.7952 34.1793 90.5575 35.0444 92.0648 35.0444C92.5616 35.0444 92.9727 34.9416 93.2982 34.736C93.6236 34.5133 93.7863 34.2393 93.7863 33.9138C93.7863 33.5712 93.6151 33.2629 93.2725 32.9888C92.9299 32.6976 92.2447 32.3037 91.2169 31.8069C90.1892 31.3273 89.444 30.822 88.9815 30.2909C88.5191 29.7428 88.2878 29.109 88.2878 28.3896C88.2878 27.6188 88.5105 26.9421 88.9559 26.3597C89.4012 25.7602 90.0264 25.2977 90.8315 24.9723C91.6366 24.6297 92.553 24.4584 93.5808 24.4584C94.0775 24.4584 94.54 24.4926 94.9683 24.5612C95.3965 24.6297 95.7305 24.7068 95.9703 24.7924C96.2273 24.8609 96.39 24.9037 96.4585 24.9209L96.587 25.1778C96.5527 25.3662 96.4757 25.7945 96.3558 26.4625C96.253 27.1134 96.1673 27.7901 96.0988 28.4924L94.6599 28.5951L94.6856 28.1326C94.6856 27.5331 94.54 27.0963 94.2488 26.8222C93.9576 26.531 93.5037 26.3854 92.8871 26.3854C92.4417 26.3854 92.0648 26.4968 91.7565 26.7195C91.4482 26.925 91.294 27.1905 91.294 27.516C91.294 27.8414 91.4311 28.1412 91.7051 28.4153C91.9792 28.6893 92.4331 28.9805 93.0669 29.2889C94.0775 29.7685 94.8484 30.1967 95.3794 30.5736C95.9275 30.9504 96.3044 31.3358 96.5099 31.7298C96.7326 32.1067 96.8439 32.5606 96.8439 33.0916C96.8439 33.7939 96.6127 34.4363 96.1502 35.0187C95.6877 35.6011 95.0539 36.0636 94.2488 36.4061C93.4438 36.7487 92.5616 36.92 91.6023 36.92ZM103.016 36.92C101.8 36.92 100.909 36.6717 100.344 36.1749C99.7783 35.661 99.4957 34.8559 99.4957 33.7597V28.0299C99.4957 27.4817 99.4014 27.122 99.213 26.9507C99.0246 26.7623 98.6563 26.6595 98.1082 26.6424L97.8512 26.4625L98.0311 25.2035C98.682 24.8952 99.3244 24.544 99.9582 24.1501C100.592 23.7389 101.114 23.3792 101.525 23.0709C101.954 22.7626 102.219 22.5656 102.322 22.4799L103.041 22.8397C103.024 22.9424 102.981 23.1908 102.913 23.5848C102.862 23.9788 102.81 24.4669 102.759 25.0493L105.791 24.9723L105.893 25.1007L105.637 26.8222L102.605 26.7452C102.502 28.2354 102.45 30.1025 102.45 32.3465C102.45 33.083 102.579 33.6141 102.836 33.9395C103.093 34.265 103.513 34.4277 104.095 34.4277C104.403 34.4277 104.712 34.3763 105.02 34.2735C105.345 34.1708 105.551 34.1022 105.637 34.068L105.971 34.8902C105.868 34.993 105.619 35.2071 105.225 35.5325C104.849 35.858 104.437 36.1749 103.992 36.4832C103.564 36.7744 103.238 36.92 103.016 36.92ZM116.964 36.92C115.885 36.92 114.934 36.6802 114.112 36.2006C113.29 35.7038 112.656 35.0101 112.211 34.1194C111.765 33.2286 111.543 32.2009 111.543 31.0361C111.543 29.7514 111.8 28.6123 112.313 27.6188C112.844 26.6253 113.572 25.8544 114.497 25.3063C115.44 24.741 116.519 24.4584 117.735 24.4584C119.396 24.4584 120.707 24.9894 121.666 26.0514C122.642 27.0963 123.131 28.5181 123.131 30.3166C123.131 31.6013 122.874 32.749 122.36 33.7597C121.846 34.7532 121.118 35.5325 120.176 36.0978C119.251 36.646 118.18 36.92 116.964 36.92ZM117.478 34.993C118.214 34.993 118.771 34.7018 119.148 34.1194C119.542 33.5198 119.739 32.6462 119.739 31.4986C119.739 29.8884 119.516 28.6722 119.071 27.85C118.626 27.0278 117.983 26.6167 117.144 26.6167C116.407 26.6167 115.842 26.9165 115.448 27.516C115.071 28.0984 114.883 28.9634 114.883 30.1111C114.883 31.7213 115.106 32.9374 115.551 33.7597C115.996 34.5819 116.639 34.993 117.478 34.993ZM124.945 35.1985C125.442 35.1471 125.802 35.0015 126.024 34.7617C126.264 34.5219 126.384 34.1793 126.384 33.734V27.6958C126.367 27.3019 126.247 27.0449 126.024 26.925C125.802 26.788 125.365 26.7023 124.714 26.6681L124.611 26.5139L124.817 25.2035L126.384 24.9466V24.741C126.384 23.285 126.65 22.0174 127.181 20.9383C127.712 19.842 128.457 19.0027 129.416 18.4203C130.392 17.8379 131.523 17.5467 132.808 17.5467C133.339 17.5467 133.818 17.5895 134.247 17.6751C134.692 17.7437 135.043 17.8207 135.3 17.9064C135.557 17.992 135.72 18.052 135.788 18.0862L135.891 18.4717C135.84 18.5916 135.728 18.8571 135.557 19.2682C135.403 19.6621 135.214 20.1503 134.992 20.7327L134.683 20.8098C134.632 20.7584 134.478 20.6557 134.221 20.5015C133.981 20.3473 133.656 20.2017 133.244 20.0647C132.851 19.9105 132.422 19.8334 131.96 19.8334C131.069 19.8334 130.435 20.1418 130.058 20.7584C129.682 21.3751 129.485 22.4114 129.467 23.8674L129.442 25.0493C130.298 25.0493 131.018 25.0408 131.6 25.0237C132.2 25.0065 132.585 24.9894 132.756 24.9723L132.833 25.1007L132.576 26.8222C132.422 26.8222 132.063 26.8137 131.497 26.7965C130.949 26.7794 130.255 26.7623 129.416 26.7452L129.339 33.734C129.339 34.539 129.699 34.9416 130.418 34.9416C130.795 34.9416 131.129 34.933 131.42 34.9159C131.711 34.8988 131.9 34.8902 131.985 34.8902L132.088 34.993L131.831 36.6888C131.557 36.6888 131.043 36.6717 130.29 36.6374C129.553 36.6203 128.842 36.6117 128.157 36.6117C127.558 36.6117 126.898 36.6288 126.179 36.6631C125.476 36.7145 125.014 36.7487 124.791 36.7659L124.945 35.1985ZM140.199 35.0957C140.987 35.0272 141.552 34.9245 141.894 34.7874C142.237 34.6504 142.468 34.4106 142.588 34.068C142.708 33.7254 142.768 33.1601 142.768 32.3722V22.0688C141.774 22.1031 141.072 22.1887 140.661 22.3258C140.267 22.4628 139.993 22.7454 139.839 23.1737C139.685 23.5848 139.548 24.3385 139.428 25.4348L137.321 25.5889C137.441 24.1672 137.543 22.3429 137.629 20.1161L137.912 19.8334L140.455 20.1161H148.472L151.067 19.8334L151.35 20.1161C151.384 22.1716 151.47 23.9445 151.607 25.4348L149.5 25.5889C149.363 24.4241 149.217 23.6276 149.063 23.1994C148.926 22.7711 148.669 22.4885 148.292 22.3515C147.932 22.1973 147.282 22.1031 146.339 22.0688C146.254 23.3364 146.177 25.0579 146.108 27.2333C146.057 29.4088 146.031 31.3872 146.031 33.1687C146.031 33.8025 146.142 34.2564 146.365 34.5305C146.588 34.8045 146.948 34.9416 147.444 34.9416C147.873 34.9416 148.326 34.9159 148.806 34.8645L148.909 34.993L148.678 36.7145C146.862 36.646 145.389 36.6117 144.258 36.6117C143.367 36.6117 141.946 36.6631 139.993 36.7659L140.199 35.0957ZM157.066 36.92C155.268 36.92 153.846 36.3976 152.801 35.3527C151.773 34.2907 151.259 32.8432 151.259 31.0104C151.259 29.7771 151.525 28.6637 152.056 27.6701C152.587 26.6766 153.315 25.8973 154.24 25.332C155.165 24.7496 156.193 24.4584 157.323 24.4584C160.201 24.4584 161.64 25.9144 161.64 28.8264C161.64 29.3403 161.58 29.8199 161.46 30.2653L161.152 30.5736H154.497C154.514 31.824 154.805 32.7833 155.371 33.4513C155.953 34.1022 156.758 34.4277 157.786 34.4277C158.677 34.4277 159.696 34.1708 160.843 33.6569L161.023 33.7597L161.434 35.0187C160.801 35.4983 160.064 35.9351 159.225 36.3291C158.402 36.723 157.683 36.92 157.066 36.92ZM158.017 28.9549C158.223 28.9377 158.351 28.8949 158.402 28.8264C158.471 28.7579 158.505 28.6037 158.505 28.3639C158.505 27.0963 157.966 26.4625 156.886 26.4625C156.218 26.4625 155.67 26.6938 155.242 27.1563C154.831 27.6188 154.583 28.2868 154.497 29.1604L158.017 28.9549ZM166.828 36.92C166.211 36.92 165.646 36.8686 165.132 36.7659C164.635 36.6631 164.241 36.5603 163.95 36.4575C163.659 36.3376 163.479 36.2605 163.411 36.2263L163.256 35.9693C163.325 35.5069 163.385 34.9673 163.436 34.3506C163.505 33.734 163.556 33.143 163.59 32.5777L165.004 32.4493C165.021 34.1793 165.783 35.0444 167.29 35.0444C167.787 35.0444 168.198 34.9416 168.524 34.736C168.849 34.5133 169.012 34.2393 169.012 33.9138C169.012 33.5712 168.841 33.2629 168.498 32.9888C168.155 32.6976 167.47 32.3037 166.442 31.8069C165.415 31.3273 164.67 30.822 164.207 30.2909C163.745 29.7428 163.513 29.109 163.513 28.3896C163.513 27.6188 163.736 26.9421 164.181 26.3597C164.627 25.7602 165.252 25.2977 166.057 24.9723C166.862 24.6297 167.779 24.4584 168.806 24.4584C169.303 24.4584 169.766 24.4926 170.194 24.5612C170.622 24.6297 170.956 24.7068 171.196 24.7924C171.453 24.8609 171.616 24.9037 171.684 24.9209L171.813 25.1778C171.778 25.3662 171.701 25.7945 171.581 26.4625C171.479 27.1134 171.393 27.7901 171.324 28.4924L169.886 28.5951L169.911 28.1326C169.911 27.5331 169.766 27.0963 169.474 26.8222C169.183 26.531 168.729 26.3854 168.113 26.3854C167.667 26.3854 167.29 26.4968 166.982 26.7195C166.674 26.925 166.52 27.1905 166.52 27.516C166.52 27.8414 166.657 28.1412 166.931 28.4153C167.205 28.6893 167.659 28.9805 168.292 29.2889C169.303 29.7685 170.074 30.1967 170.605 30.5736C171.153 30.9504 171.53 31.3358 171.735 31.7298C171.958 32.1067 172.07 32.5606 172.07 33.0916C172.07 33.7939 171.838 34.4363 171.376 35.0187C170.913 35.6011 170.279 36.0636 169.474 36.4061C168.669 36.7487 167.787 36.92 166.828 36.92ZM178.241 36.92C177.025 36.92 176.134 36.6717 175.569 36.1749C175.004 35.661 174.721 34.8559 174.721 33.7597V28.0299C174.721 27.4817 174.627 27.122 174.439 26.9507C174.25 26.7623 173.882 26.6595 173.334 26.6424L173.077 26.4625L173.257 25.2035C173.908 24.8952 174.55 24.544 175.184 24.1501C175.817 23.7389 176.34 23.3792 176.751 23.0709C177.179 22.7626 177.445 22.5656 177.548 22.4799L178.267 22.8397C178.25 22.9424 178.207 23.1908 178.139 23.5848C178.087 23.9788 178.036 24.4669 177.984 25.0493L181.016 24.9723L181.119 25.1007L180.862 26.8222L177.83 26.7452C177.727 28.2354 177.676 30.1025 177.676 32.3465C177.676 33.083 177.805 33.6141 178.061 33.9395C178.318 34.265 178.738 34.4277 179.32 34.4277C179.629 34.4277 179.937 34.3763 180.245 34.2735C180.571 34.1708 180.776 34.1022 180.862 34.068L181.196 34.8902C181.093 34.993 180.845 35.2071 180.451 35.5325C180.074 35.858 179.663 36.1749 179.218 36.4832C178.789 36.7744 178.464 36.92 178.241 36.92Z" fill="white"/>
<ellipse cx="24.6032" cy="28.6597" rx="20.4714" ry="20.267" fill="white"/>
<path d="M24.5899 8.32545C13.3692 8.32545 4.27441 17.4203 4.27441 28.6411C4.27441 36.7259 9.00929 43.6859 15.8459 46.9557L16.4817 34.6689C16.4817 34.6689 15.2857 34.2764 15.0239 34.1486C12.487 33.0311 10.6441 29.7408 10.6441 25.4705C10.6441 20.8107 14.2579 16.7969 17.7518 16.7638C17.7562 16.7638 17.7562 16.7638 17.7592 16.7638C17.7607 16.7638 17.7636 16.7638 17.765 16.7638C21.2596 16.7968 24.8736 20.8105 24.8736 25.4705C24.8736 29.7408 23.0284 33.0297 20.4967 34.1486C20.4769 34.1573 19.0272 34.6837 19.0272 34.6837L19.7374 48.3451C21.2957 48.7287 22.9159 48.9538 24.5927 48.9538C26.854 48.9538 29.0196 48.5686 31.0514 47.8878L31.6807 35.7129C30.0224 35.3482 28.6079 34.2925 27.7214 32.968C26.6232 31.3228 28.5668 16.7624 28.5668 16.7624H29.8312V30.4259H31.0869V16.7639H32.4601V30.429H33.7098V16.7639H35.1345V30.429H36.3885V16.7639H37.3588C37.3588 16.7639 39.3025 31.3244 38.2029 32.9695C37.325 34.281 35.9239 35.3337 34.2862 35.7071C34.2568 35.7175 34.2302 35.7276 34.2302 35.7276L34.7772 46.2002C40.8287 42.6818 44.9071 36.1453 44.9071 28.6412C44.904 17.4204 35.8092 8.32545 24.5899 8.32545Z" fill="#FF2F30"/>
<path d="M13.6172 23.4048C13.6899 23.1086 13.7878 22.8271 13.7922 22.822C13.8238 22.711 13.765 22.5978 13.6444 22.5258C13.5297 22.464 13.39 22.4957 13.3254 22.5949C13.3254 22.5949 13.1864 22.8162 12.985 23.1433C12.8211 23.4248 12.5785 23.8747 12.413 24.4349C12.2697 24.9259 12.0985 25.5787 12.0213 26.3093C11.9882 26.6931 11.9808 27.0393 11.9925 27.3958C12.0213 27.8022 12.0829 28.15 12.2006 28.5477C12.5997 29.682 12.907 30.7804 14.0163 31.8638C14.3669 32.2241 14.7272 32.4696 14.9874 32.6504L15.0792 32.715C15.1352 32.7519 15.1888 32.7858 15.2417 32.8167C15.4601 32.9313 15.6063 32.9724 15.6328 32.9782C15.7415 33.0076 15.8534 32.9547 15.8996 32.8665C15.943 32.7739 15.9114 32.6577 15.821 32.5843C15.821 32.5843 15.6945 32.4741 15.5321 32.2682C15.4211 32.1432 15.3005 31.9624 15.1602 31.7581C15.061 31.614 14.9441 31.4508 14.8353 31.292C14.2949 30.4672 13.9834 29.316 13.5525 28.1368C13.468 27.881 13.3989 27.5494 13.3731 27.2679C13.3387 26.9429 13.3225 26.6299 13.3225 26.3394C13.3099 25.6646 13.3401 25.0853 13.3989 24.6156C13.4665 24.0856 13.5194 23.6879 13.6172 23.4048Z" fill="#FF2F30"/>
<path d="M24.5897 4.55299C11.3084 4.55299 0.5 15.3591 0.5 28.6412C0.5 41.9203 11.3084 52.7295 24.5897 52.7295C37.8703 52.7295 48.6766 41.9203 48.6766 28.6412C48.6765 15.3591 37.8703 4.55299 24.5897 4.55299ZM24.5897 50.9328C12.2971 50.9328 2.29586 40.9324 2.29586 28.6412C2.29586 16.3485 12.2971 6.34732 24.5897 6.34732C36.8809 6.34732 46.8829 16.3485 46.8829 28.6412C46.8828 40.9324 36.8808 50.9328 24.5897 50.9328Z" fill="#FF797A"/>
<path d="M41.2714 5.7213C40.6444 6.89949 40.3591 8.166 40.3811 9.40683C38.0355 7.58145 37.2801 4.25864 38.7385 1.51803C38.9217 1.17386 39.1316 0.853278 39.3673 0.558112C39.9544 0.671921 40.5362 0.874017 41.0914 1.16947C42.0468 1.67788 42.8145 2.40421 43.3662 3.25393C42.5235 3.89436 41.8024 4.72339 41.2714 5.7213Z" fill="#FF2F30"/>
<path d="M49.7239 7.36364C48.3915 9.86752 45.625 11.1106 43.0027 10.6007C42.5521 10.5128 42.1067 10.3763 41.6721 10.1801L41.6703 10.1791C41.482 8.89421 41.6896 7.53488 42.3495 6.29478C42.7584 5.52632 43.303 4.87677 43.9371 4.35897C45.723 2.90254 48.2183 2.50361 50.4031 3.47931C50.5914 4.76421 50.3838 6.12353 49.7239 7.36364Z" fill="#FF2F30"/>
</svg>
