<svg xmlns="http://www.w3.org/2000/svg" width="17" height="18" fill="none" viewBox="0 0 17 18"><path stroke="#fff" stroke-linecap="round" stroke-linejoin="round" stroke-width="1.5" d="M13.4906 5.86121C13.4906 4.58794 12.9853 3.36682 12.0858 2.46649C11.1864 1.56615 9.96641 1.06035 8.69437 1.06035C7.42232 1.06035 6.20238 1.56615 5.30291 2.46649C4.40344 3.36682 3.89812 4.58794 3.89812 5.86121C3.89812 11.4622 1.5 13.0625 1.5 13.0625H15.8887C15.8887 13.0625 13.4906 11.4622 13.4906 5.86121Z"/><path stroke="#fff" stroke-linecap="round" stroke-linejoin="round" stroke-width="1.5" d="M10.0773 16.2629C9.93679 16.5052 9.73507 16.7063 9.49237 16.8461C9.24967 16.9859 8.97451 17.0594 8.69442 17.0594C8.41434 17.0594 8.13918 16.9859 7.89648 16.8461C7.65378 16.7063 7.45206 16.5052 7.31152 16.2629"/></svg>