<svg width="16" height="16" viewBox="0 0 16 16" fill="none" xmlns="http://www.w3.org/2000/svg">
<path d="M14.0784 0.500008H5.50698C5.22281 0.500008 4.95029 0.61289 4.74936 0.813822C4.54843 1.01475 4.43555 1.28728 4.43555 1.57144H14.0784V14.4286H5.50698V9.17858H4.43555V14.4286C4.43555 14.7127 4.54843 14.9853 4.74936 15.1862C4.95029 15.3871 5.22281 15.5 5.50698 15.5H14.0784C14.3626 15.5 14.6351 15.3871 14.836 15.1862C15.0369 14.9853 15.1498 14.7127 15.1498 14.4286V1.57144C15.1498 1.28728 15.0369 1.01475 14.836 0.813822C14.6351 0.61289 14.3626 0.500008 14.0784 0.500008Z" fill="white"/>
<path d="M7.1784 8.24644C7.12232 8.29446 7.07678 8.35356 7.04462 8.42002C7.01247 8.48649 6.9944 8.55888 6.99155 8.63266C6.9887 8.70644 7.00113 8.78001 7.02806 8.84875C7.055 8.9175 7.09585 8.97993 7.14806 9.03214C7.20026 9.08435 7.2627 9.1252 7.33144 9.15213C7.40019 9.17907 7.47376 9.1915 7.54754 9.18865C7.62132 9.1858 7.69371 9.16773 7.76017 9.13558C7.82664 9.10342 7.88574 9.05787 7.93376 9.00179L11.0355 5.90001L7.93912 2.79822C7.83664 2.71046 7.70481 2.6646 7.56998 2.66981C7.43516 2.67501 7.30726 2.73091 7.21185 2.82631C7.11644 2.92172 7.06055 3.04962 7.05534 3.18444C7.05014 3.31927 7.096 3.4511 7.18376 3.55358L8.98912 5.32144H1.22126C1.07918 5.32144 0.94292 5.37788 0.842454 5.47834C0.741988 5.57881 0.685547 5.71507 0.685547 5.85715C0.685547 5.99923 0.741988 6.13549 0.842454 6.23596C0.94292 6.33642 1.07918 6.39286 1.22126 6.39286H8.98912L7.1784 8.24644Z" fill="white"/>
</svg>
